<?xml version="1.0" encoding="UTF-8" standalone="no"?>
<!DOCTYPE svg PUBLIC "-//W3C//DTD SVG 1.1//EN" "http://www.w3.org/Graphics/SVG/1.1/DTD/svg11.dtd">
<svg width="100%" height="100%" viewBox="0 0 640 550" version="1.1" xmlns="http://www.w3.org/2000/svg" xmlns:xlink="http://www.w3.org/1999/xlink" xml:space="preserve" xmlns:serif="http://www.serif.com/" style="fill-rule:evenodd;clip-rule:evenodd;stroke-linejoin:round;">
    <rect x="0" y="0" width="640" height="550" style="fill:white;"/>
    <rect x="28.839" y="11.811" width="599.352" height="487.339" style="fill:white;"/>
    <path d="M45.801,499.15L45.801,11.811" style="fill:none;fill-rule:nonzero;stroke:black;stroke-opacity:0.1;stroke-width:0.5px;"/>
    <path d="M76.18,499.15L76.18,11.811" style="fill:none;fill-rule:nonzero;stroke:black;stroke-opacity:0.1;stroke-width:0.5px;"/>
    <path d="M104.598,499.15L104.598,11.811" style="fill:none;fill-rule:nonzero;stroke:black;stroke-opacity:0.1;stroke-width:0.5px;"/>
    <path d="M134.976,499.15L134.976,11.811" style="fill:none;fill-rule:nonzero;stroke:black;stroke-opacity:0.1;stroke-width:0.5px;"/>
    <path d="M164.374,499.15L164.374,11.811" style="fill:none;fill-rule:nonzero;stroke:black;stroke-opacity:0.1;stroke-width:0.5px;"/>
    <path d="M194.752,499.15L194.752,11.811" style="fill:none;fill-rule:nonzero;stroke:black;stroke-opacity:0.1;stroke-width:0.5px;"/>
    <path d="M224.15,499.15L224.15,11.811" style="fill:none;fill-rule:nonzero;stroke:black;stroke-opacity:0.1;stroke-width:0.5px;"/>
    <path d="M254.528,499.15L254.528,11.811" style="fill:none;fill-rule:nonzero;stroke:black;stroke-opacity:0.1;stroke-width:0.5px;"/>
    <path d="M284.908,499.15L284.908,11.811" style="fill:none;fill-rule:nonzero;stroke:black;stroke-opacity:0.1;stroke-width:0.5px;"/>
    <path d="M314.305,499.15L314.305,11.811" style="fill:none;fill-rule:nonzero;stroke:black;stroke-opacity:0.1;stroke-width:0.5px;"/>
    <path d="M344.683,499.15L344.683,11.811" style="fill:none;fill-rule:nonzero;stroke:black;stroke-opacity:0.1;stroke-width:0.5px;"/>
    <path d="M374.08,499.15L374.08,11.811" style="fill:none;fill-rule:nonzero;stroke:black;stroke-opacity:0.1;stroke-width:0.5px;"/>
    <path d="M404.46,499.15L404.46,11.811" style="fill:none;fill-rule:nonzero;stroke:black;stroke-opacity:0.1;stroke-width:0.5px;"/>
    <path d="M434.837,499.15L434.837,11.811" style="fill:none;fill-rule:nonzero;stroke:black;stroke-opacity:0.1;stroke-width:0.5px;"/>
    <path d="M462.275,499.15L462.275,11.811" style="fill:none;fill-rule:nonzero;stroke:black;stroke-opacity:0.1;stroke-width:0.5px;"/>
    <path d="M492.652,499.15L492.652,11.811" style="fill:none;fill-rule:nonzero;stroke:black;stroke-opacity:0.1;stroke-width:0.5px;"/>
    <path d="M522.053,499.15L522.053,11.811" style="fill:none;fill-rule:nonzero;stroke:black;stroke-opacity:0.1;stroke-width:0.5px;"/>
    <path d="M552.43,499.15L552.43,11.811" style="fill:none;fill-rule:nonzero;stroke:black;stroke-opacity:0.1;stroke-width:0.5px;"/>
    <path d="M581.828,499.15L581.828,11.811" style="fill:none;fill-rule:nonzero;stroke:black;stroke-opacity:0.1;stroke-width:0.5px;"/>
    <path d="M28.839,499.15L628.19,499.15" style="fill:none;fill-rule:nonzero;stroke:black;stroke-width:1px;"/>
    <path d="M45.801,499.15L45.801,493.303" style="fill:none;fill-rule:nonzero;stroke:black;stroke-width:1px;"/>
    <path d="M76.18,499.15L76.18,493.303" style="fill:none;fill-rule:nonzero;stroke:black;stroke-width:1px;"/>
    <path d="M104.598,499.15L104.598,493.303" style="fill:none;fill-rule:nonzero;stroke:black;stroke-width:1px;"/>
    <path d="M134.976,499.15L134.976,493.303" style="fill:none;fill-rule:nonzero;stroke:black;stroke-width:1px;"/>
    <path d="M164.374,499.15L164.374,493.303" style="fill:none;fill-rule:nonzero;stroke:black;stroke-width:1px;"/>
    <path d="M194.752,499.15L194.752,493.303" style="fill:none;fill-rule:nonzero;stroke:black;stroke-width:1px;"/>
    <path d="M224.15,499.15L224.15,493.303" style="fill:none;fill-rule:nonzero;stroke:black;stroke-width:1px;"/>
    <path d="M254.528,499.15L254.528,493.303" style="fill:none;fill-rule:nonzero;stroke:black;stroke-width:1px;"/>
    <path d="M284.908,499.15L284.908,493.303" style="fill:none;fill-rule:nonzero;stroke:black;stroke-width:1px;"/>
    <path d="M314.305,499.15L314.305,493.303" style="fill:none;fill-rule:nonzero;stroke:black;stroke-width:1px;"/>
    <path d="M344.683,499.15L344.683,493.303" style="fill:none;fill-rule:nonzero;stroke:black;stroke-width:1px;"/>
    <path d="M374.08,499.15L374.08,493.303" style="fill:none;fill-rule:nonzero;stroke:black;stroke-width:1px;"/>
    <path d="M404.46,499.15L404.46,493.303" style="fill:none;fill-rule:nonzero;stroke:black;stroke-width:1px;"/>
    <path d="M434.837,499.15L434.837,493.303" style="fill:none;fill-rule:nonzero;stroke:black;stroke-width:1px;"/>
    <path d="M462.275,499.15L462.275,493.303" style="fill:none;fill-rule:nonzero;stroke:black;stroke-width:1px;"/>
    <path d="M492.652,499.15L492.652,493.303" style="fill:none;fill-rule:nonzero;stroke:black;stroke-width:1px;"/>
    <path d="M522.053,499.15L522.053,493.303" style="fill:none;fill-rule:nonzero;stroke:black;stroke-width:1px;"/>
    <path d="M552.43,499.15L552.43,493.303" style="fill:none;fill-rule:nonzero;stroke:black;stroke-width:1px;"/>
    <path d="M581.828,499.15L581.828,493.303" style="fill:none;fill-rule:nonzero;stroke:black;stroke-width:1px;"/>
    <g transform="matrix(1,0,0,1,45.8013,514.77)">
        <text x="-3px" y="0px" style="font-family:'ArialMT', 'Arial', sans-serif;font-size:12px;">J</text>
    </g>
    <g transform="matrix(1,0,0,1,76.1795,514.77)">
        <text x="-3.665px" y="0px" style="font-family:'ArialMT', 'Arial', sans-serif;font-size:12px;">F</text>
    </g>
    <g transform="matrix(1,0,0,1,104.598,514.77)">
        <text x="-4.998px" y="0px" style="font-family:'ArialMT', 'Arial', sans-serif;font-size:12px;">M</text>
    </g>
    <g transform="matrix(1,0,0,1,134.976,514.77)">
        <text x="-4.002px" y="0px" style="font-family:'ArialMT', 'Arial', sans-serif;font-size:12px;">A</text>
    </g>
    <g transform="matrix(1,0,0,1,164.374,514.77)">
        <text x="-4.998px" y="0px" style="font-family:'ArialMT', 'Arial', sans-serif;font-size:12px;">M</text>
    </g>
    <g transform="matrix(1,0,0,1,194.752,514.77)">
        <text x="-3px" y="0px" style="font-family:'ArialMT', 'Arial', sans-serif;font-size:12px;">J</text>
    </g>
    <g transform="matrix(1,0,0,1,224.15,514.77)">
        <text x="-3px" y="0px" style="font-family:'ArialMT', 'Arial', sans-serif;font-size:12px;">J</text>
    </g>
    <g transform="matrix(1,0,0,1,254.528,514.77)">
        <text x="-4.002px" y="0px" style="font-family:'ArialMT', 'Arial', sans-serif;font-size:12px;">A</text>
    </g>
    <g transform="matrix(1,0,0,1,284.908,514.77)">
        <text x="-4.002px" y="0px" style="font-family:'ArialMT', 'Arial', sans-serif;font-size:12px;">S</text>
    </g>
    <g transform="matrix(1,0,0,1,314.305,514.77)">
        <text x="-4.667px" y="0px" style="font-family:'ArialMT', 'Arial', sans-serif;font-size:12px;">O</text>
    </g>
    <g transform="matrix(1,0,0,1,344.683,514.77)">
        <text x="-4.333px" y="0px" style="font-family:'ArialMT', 'Arial', sans-serif;font-size:12px;">N</text>
    </g>
    <g transform="matrix(1,0,0,1,374.08,514.77)">
        <text x="-4.333px" y="0px" style="font-family:'ArialMT', 'Arial', sans-serif;font-size:12px;">D</text>
    </g>
    <g transform="matrix(1,0,0,1,404.46,514.77)">
        <text x="-3px" y="0px" style="font-family:'ArialMT', 'Arial', sans-serif;font-size:12px;">J</text>
    </g>
    <g transform="matrix(1,0,0,1,434.837,514.77)">
        <text x="-3.665px" y="0px" style="font-family:'ArialMT', 'Arial', sans-serif;font-size:12px;">F</text>
    </g>
    <g transform="matrix(1,0,0,1,462.275,514.77)">
        <text x="-4.998px" y="0px" style="font-family:'ArialMT', 'Arial', sans-serif;font-size:12px;">M</text>
    </g>
    <g transform="matrix(1,0,0,1,492.652,514.77)">
        <text x="-4.002px" y="0px" style="font-family:'ArialMT', 'Arial', sans-serif;font-size:12px;">A</text>
    </g>
    <g transform="matrix(1,0,0,1,522.053,514.77)">
        <text x="-4.998px" y="0px" style="font-family:'ArialMT', 'Arial', sans-serif;font-size:12px;">M</text>
    </g>
    <g transform="matrix(1,0,0,1,552.43,514.77)">
        <text x="-3px" y="0px" style="font-family:'ArialMT', 'Arial', sans-serif;font-size:12px;">J</text>
    </g>
    <g transform="matrix(1,0,0,1,581.827,514.77)">
        <text x="-3px" y="0px" style="font-family:'ArialMT', 'Arial', sans-serif;font-size:12px;">J</text>
    </g>
    <g transform="matrix(1,0,0,1,350.515,536.215)">
        <text x="-158.188px" y="0px" style="font-family:'ArialMT', 'Arial', sans-serif;font-size:16.5px;">2020                                                     2021</text>
    </g>
    <path d="M28.839,361.805L628.19,361.805" style="fill:none;fill-rule:nonzero;stroke:black;stroke-opacity:0.1;stroke-width:0.5px;"/>
    <path d="M28.839,121.588L628.19,121.588" style="fill:none;fill-rule:nonzero;stroke:black;stroke-opacity:0.1;stroke-width:0.5px;"/>
    <path d="M28.839,41.516L628.19,41.516" style="fill:none;fill-rule:nonzero;stroke:black;stroke-opacity:0.1;stroke-width:0.5px;"/>
    <path d="M28.839,499.15L28.839,11.811" style="fill:none;fill-rule:nonzero;stroke:black;stroke-width:1px;"/>
    <path d="M28.839,361.805L36.031,361.805" style="fill:none;fill-rule:nonzero;stroke:black;stroke-width:1px;"/>
    <path d="M28.839,121.588L36.031,121.588" style="fill:none;fill-rule:nonzero;stroke:black;stroke-width:1px;"/>
    <path d="M28.839,41.516L36.031,41.516" style="fill:none;fill-rule:nonzero;stroke:black;stroke-width:1px;"/>
    <g transform="matrix(1,0,0,1,19.2386,366.18)">
        <text x="-6.674px" y="0px" style="font-family:'ArialMT', 'Arial', sans-serif;font-size:12px;">0</text>
    </g>
    <g transform="matrix(1,0,0,1,19.2386,125.963)">
        <text x="-6.674px" y="0px" style="font-family:'ArialMT', 'Arial', sans-serif;font-size:12px;">0</text>
    </g>
    <g transform="matrix(1,0,0,1,19.2386,45.8907)">
        <text x="-6.674px" y="0px" style="font-family:'ArialMT', 'Arial', sans-serif;font-size:12px;">0</text>
    </g>
    <path d="M65.4,361.808L66.38,361.805L69.32,361.805L70.3,361.808L71.28,361.805L75.2,361.805L76.18,361.803L77.159,361.81L78.139,361.805L79.119,361.805L80.099,361.808L81.079,361.805L84.019,361.805L84.999,361.808L85.979,361.805L86.959,361.805L87.939,361.808L88.919,361.805L89.899,361.805L90.879,361.793L91.859,361.818L92.839,361.805L93.819,361.803L94.798,361.805L95.778,361.81L96.758,361.805L97.738,361.788L98.718,361.82L99.698,361.788L100.678,361.825L101.658,361.798L102.638,361.805L103.618,361.788L104.598,361.808L105.578,361.798L106.558,361.785L107.537,361.765L108.518,361.785L109.498,361.76L110.477,361.803L111.457,361.695L112.437,361.712L113.417,361.837L114.397,361.592L115.377,361.603L116.357,361.648L117.337,361.768L118.317,361.533L119.297,361.148L120.277,360.41L121.257,359.67L122.237,359.703L123.217,360.608L124.197,359.098L125.177,359.288L126.156,361.805L127.136,356.198L128.116,358.65L129.096,361.363L130.076,356.82L131.056,365.203L132.036,357.87L133.016,357.753L133.996,358.57L134.976,358.085L135.956,358.335L136.936,358.095L137.916,374.46L138.896,354.733L139.875,362.578L140.856,359.825L141.836,357.962L142.815,363.443L143.795,364.145L144.775,367.913L145.755,363.64L146.735,360.575L147.715,357.345L148.695,359.698L149.675,361.945L150.655,365.958L151.635,365.895L152.615,359.055L153.595,364.315L154.575,357.378L155.555,355.205L156.535,357.848L157.515,364.918L158.494,372.045L159.474,366.527L160.454,359.865L161.434,359.265L162.414,356.73L163.394,356.983L164.374,367.805L165.354,366.255L166.334,367.38L167.314,359.473L168.294,360.743L169.274,356.505L170.254,362.913L171.234,365.515L172.214,367.878L173.194,365.402L174.174,355.56L175.153,363.348L176.133,354.043L177.113,362.773L178.093,365.245L179.073,368.005L180.053,358.05L181.033,362.94L182.013,359.013L182.993,358.253L183.973,364.385L184.953,363.848L185.933,364.79L186.913,363.048L187.893,362.078L188.873,362.008L189.853,356.777L190.832,359.087L191.812,363.34L192.792,365.493L193.772,360.12L194.752,363.28L195.732,362.878L196.712,359.63L197.692,352.34L198.672,370.07L199.652,367.01L200.632,362.35L201.612,361.008L202.592,356.405L203.571,361.337L204.552,358.748L205.532,362.018L206.512,370.085L207.491,360.488L208.471,355.443L209.451,360.777L210.431,358.598L211.411,358.1L212.391,360.217L213.371,369.34L214.351,356.35L215.331,355.675L216.311,359.23L217.291,356.223L218.271,355.993L219.25,366.115L220.231,365.53L221.211,361.82L222.19,349.938L223.17,359.688L224.15,354.353L225.13,359.678L226.11,371.345L227.09,368.798L228.07,358.402L229.05,352.773L230.03,354.638L231.01,361.225L231.99,350.678L232.97,371.823L233.95,365.698L234.929,356.785L235.91,356.42L236.89,358.148L237.869,352.003L238.849,368.163L239.829,373.113L240.809,362.04L241.789,364.99L242.769,354.613L243.749,355.85L244.729,361.45L245.709,357.11L246.689,370.813L247.669,378.565L248.649,355.18L249.629,356.553L250.607,356.913L251.588,358.915L252.568,361.618L253.548,378.168L254.528,369.858L255.508,366.223L256.488,353.71L257.467,361.573L258.448,356.745L259.428,356.943L260.408,369.703L261.387,370.828L262.368,363.55L263.348,353.553L264.328,360.575L265.308,362.095L266.288,354.578L267.268,373.46L268.248,373.29L269.228,367.962L270.208,354.185L271.188,362.098L272.168,357.78L273.148,357.803L274.128,367.148L275.108,378.745L276.088,351.035L277.068,363.435L278.048,353.618L279.027,361.415L280.008,360.535L280.988,364.415L281.967,376.725L282.948,357.725L283.928,351.712L284.908,377.293L285.888,343.185L286.868,354.193L287.848,374.948L288.828,378.165L289.805,368.25L290.785,356.76L291.765,355.953L292.745,355.495L293.725,349.12L294.705,373.1L295.685,369.493L296.665,357.075L297.645,358.695L298.625,361.738L299.605,353.743L300.585,357.033L301.565,371.248L302.545,369.085L303.525,336.988L304.505,385.24L305.485,356.255L306.465,356.928L307.445,349.29L308.425,377.668L309.405,369.008L310.385,361.723L311.365,353.348L312.345,363.993L313.325,355.988L314.305,352.248L315.285,369.548L316.265,378.775L317.245,325.305L318.225,387.898L319.205,348.253L320.185,357.315L321.165,358.363L322.145,371.565L323.125,370.967L324.105,357.49L325.085,353.295L326.065,354.52L327.045,354.462L328.025,354.985L329.005,385.43L329.983,368.318L330.962,338.373L331.943,368.273L332.923,356.943L333.902,347.268L334.883,348.238L335.863,370.77L336.842,386.98L337.823,341.89L338.803,362.14L339.783,351.803L340.763,350.078L341.743,349.527L342.723,382.705L343.703,375.168L344.683,335.368L345.663,363.928L346.643,340.902L347.623,344.095L348.603,346.493L349.583,371.003L350.563,391.858L351.543,325.725L352.523,349.393L353.503,357.63L354.483,334.083L355.462,337.99L356.443,391.783L357.423,393.63L358.402,319.933L359.383,368.388L360.363,347.592L361.342,341.483L362.323,346.658L363.303,397.74L364.283,403.363L365.263,309.988L366.243,364.16L367.223,358.16L368.203,465.36L369.183,224.555L370.16,434.445L371.14,382.205L372.12,319.72L373.1,339.693L374.08,339.193L375.06,339.698L376.04,343.615L377.02,396.05L378,406.895L378.98,318.298L379.96,341.533L380.94,361.803L381.92,354.453L382.9,288.02L383.88,459.2L384.86,392.918L385.84,339.563L386.82,358.777L387.8,306.19L388.78,371.305L389.76,343.815L390.74,438.255L391.72,380.48L392.7,332.97L393.68,361.648L394.66,326.94L395.64,407.515L396.62,485.358L397.6,207.092L398.58,448.245L399.56,312.533L400.54,345.765L401.52,324.545L402.5,359.035L403.48,473.608L404.46,169.149L405.44,481.688L406.42,295.013L407.4,384.245L408.38,333.848L409.36,329.285L410.337,334.523L411.318,427.008L412.298,420.022L413.277,337.755L414.258,356.92L415.238,362.675L416.217,348.198L417.198,361.363L418.178,412.065L419.158,404.643L420.138,400.455L421.118,300.668L422.098,363.748L423.078,355.14L424.058,360.36L425.038,393.365L426.018,412.84L426.998,325.905L427.978,369.73L428.958,354.958L429.938,347.92L430.918,363.888L431.897,402.93L432.878,388.503L433.858,324.36L434.837,397.3L435.818,355.23L436.798,354.527L437.777,356.648L438.758,394.573L439.738,385.38L440.717,354.198L441.698,357.258L442.678,363.693L443.658,347.573L444.638,369.83L445.618,381.79L446.598,389.66L447.578,373.16L448.558,349.438L449.538,354.303L450.515,359.63L451.495,353.503L452.475,372.87L453.455,381.21L454.435,356.085L455.415,345.195L456.395,358.76L457.375,356.885L458.355,361.223L459.335,382.683L460.315,377.513L461.295,354.078L462.275,360.54L463.255,349.837L464.235,360.91L465.215,363.923L466.195,373.962L467.175,383.853L468.155,289.14L469.135,413.337L470.115,358.74L471.095,356.21L472.075,359.43L473.055,381.303L474.035,377.243L475.015,336.215L475.995,365.32L476.975,355.933L477.955,359.753L478.935,361.6L479.915,370.078L480.895,388.805L481.875,334.418L482.855,359.095L483.835,330.9L484.815,376.2L485.795,354.623L486.775,380.22L487.755,383.405L488.735,326.808L489.715,373.155L490.693,354.195L491.673,349.453L492.652,373.288L493.633,367.748L494.613,398.255L495.592,308.73L496.573,381.32L497.553,346.967L498.533,351.973L499.513,360.305L500.493,384.258L501.473,384.2L502.453,329.837L503.433,354.613L504.413,363.902L505.393,364.55L506.373,355.585L507.353,394.475L508.333,378.453L509.313,323.29L510.293,374.13L511.272,359.842L512.253,356.805L513.232,365.085L514.212,379.575L515.193,384.328L516.173,343.462L517.153,355.743L518.133,357.88L519.112,358.118L520.092,360.558L521.073,380.165L522.053,381.993L523.033,334.698L524.013,373.803L524.992,356.783L525.973,357.835L526.953,362.073L527.933,380.258L528.913,376.935L529.893,342.815L530.87,365.163L531.85,359.88L532.83,357.86L533.81,358.413L534.79,377.728L535.77,378.273L536.75,345.128L537.73,363.6L538.71,360.563L539.69,360.705L540.67,362.615L541.65,376.078L542.63,367.365L543.61,346.488L544.59,365.527L545.57,361.075L546.55,355.985L547.53,369.443L548.51,375.77L549.49,367.3L550.47,364.393L551.45,338.837L552.43,369.62L553.41,358.32L554.39,419.815L555.37,315.833L556.35,367.538L557.33,344.058L558.31,368.835L559.29,353.158L560.27,368.3L561.25,360.433L562.23,373.212L563.21,363.795L564.19,350.685L565.17,366.138L566.15,358.423L567.13,364.768L568.11,361.1L569.09,368.66L570.07,366.498L571.048,346.083L572.028,365.918L573.008,360.118L573.988,360.92L574.968,361.443L575.948,372.712L576.928,365.41L577.908,346.51L578.888,361.563L579.867,361.48L580.848,361.095L581.828,356.248L582.808,383.13L583.788,363.405L584.768,359.515L585.747,337.143L586.728,350.155L587.708,374.235L588.688,345.698L589.668,397.265L590.648,364.898L591.628,326.425L592.608,350.273L593.588,365.845L594.568,365.603L595.548,340.015L596.528,414.245L597.508,365.9L598.488,300.015L599.468,353.553" style="fill:none;fill-rule:nonzero;stroke:rgb(65,0,235);stroke-width:1.5px;"/>
    <path d="M65.4,121.588L66.38,121.588L67.36,121.588L68.34,121.588L69.32,121.588L70.3,121.588L71.28,121.589L72.26,121.588L73.24,121.588L74.22,121.588L75.2,121.588L76.18,121.588L77.159,121.588L78.139,121.588L79.119,121.588L80.099,121.589L82.059,121.589L83.039,121.589L84.019,121.588L84.999,121.588L85.979,121.588L86.959,121.588L87.939,121.588L89.899,121.588L90.879,121.585L91.859,121.588L92.839,121.589L94.798,121.587L95.778,121.588L96.758,121.588L97.738,121.587L98.718,121.587L99.698,121.583L100.678,121.589L101.658,121.587L102.638,121.586L103.618,121.581L104.598,121.587L105.578,121.581L106.558,121.58L107.537,121.563L108.518,121.558L109.498,121.546L110.477,121.55L111.457,121.518L112.437,121.493L113.417,121.509L114.397,121.459L115.377,121.408L116.357,121.376L117.337,121.366L118.317,121.319L119.297,121.158L120.277,120.75L121.257,120.201L122.237,119.658L123.217,119.361L124.197,118.598L125.177,117.956L126.156,118.144L127.136,116.94L128.116,116.649L129.096,117.123L130.076,116.04L131.056,117.785L132.036,117.38L133.016,116.222L133.996,116.9L134.976,116.739L135.956,115.873L136.936,116.238L137.916,118.882L138.896,117.986L139.875,119.365L140.856,119.724L141.836,119.689L142.815,121.148L143.795,122.876L144.775,121.006L145.755,123.551L146.735,122.978L147.715,122.269L148.695,122.765L149.675,122.337L150.655,122.855L151.635,122.278L152.615,120.968L153.595,122.037L154.575,122.046L155.555,120.763L156.535,119.593L157.515,119.296L158.494,121.054L159.474,123.189L160.454,121.917L161.434,122.456L162.414,122.892L163.394,122.645L164.374,123.47L165.354,121.815L166.334,122.059L167.314,121.947L168.294,122.37L169.274,122.305L170.254,123.999L171.234,123.345L172.214,123.808L173.194,123.243L174.174,122.126L175.153,122.87L176.133,122.166L177.113,122.126L178.093,122.049L179.073,122.085L180.053,119.985L181.033,122.093L182.013,120.854L182.993,122.057L183.973,122.518L184.953,122.119L185.933,121.2L186.913,122.628L187.893,122.382L188.873,123.238L189.853,122.816L190.832,121.302L191.812,121.158L192.792,121.358L193.772,120.522L194.752,120.866L195.732,121.114L196.712,121.93L197.692,120.001L198.672,121.924L199.652,122.358L200.632,122.995L201.612,122.346L202.592,120.496L203.571,120.984L204.552,122.815L205.532,120.514L206.512,121.392L207.491,120.86L208.471,119.27L209.451,120.519L210.431,119.736L211.411,119.551L212.391,119.037L213.371,118.824L214.351,117.642L215.331,117.709L216.311,117.266L217.291,116.588L218.271,115.986L219.25,117.671L220.231,116.582L221.211,118.145L222.19,116.506L223.17,116.637L224.15,116.103L225.13,117.155L226.11,118.65L227.09,119.583L228.07,118.607L229.05,119.417L230.03,117.974L231.01,119.937L231.99,117.366L232.97,117.503L233.95,116.617L234.929,116.154L235.91,117.196L236.89,118.2L237.869,115.565L238.849,120.56L239.829,120.929L240.809,119.884L241.789,122.228L242.769,121.712L243.749,121.055L244.729,123.754L245.709,120.596L246.689,119.939L247.669,124.661L248.649,121.858L249.629,122.412L250.607,122.716L251.588,121.992L252.568,123.28L253.548,125.381L254.528,122.893L255.508,126.048L256.488,125.236L257.467,126.568L258.448,125.948L259.428,124.612L260.408,122.194L261.387,122.471L262.368,121.707L263.348,121.661L264.328,121.376L265.308,122.905L266.288,122.229L267.268,123.303L268.248,124.007L269.228,125.268L270.208,125.449L271.188,125.884L272.168,124.651L273.148,125.572L274.128,123.768L275.108,125.327L276.088,120.49L277.068,123.132L278.048,120.709L279.027,121.747L280.008,122.528L280.988,121.747L281.967,121.17L282.948,123.082L283.928,119.733L284.908,126.497L285.888,121.289L286.868,119.477L287.848,122.487L288.828,122.897L289.805,125.905L290.785,127.347L291.765,121.25L292.745,124.766L293.725,123.317L294.705,122.789L295.685,120.311L296.665,117.119L297.645,117.672L298.625,119.325L299.605,118.824L300.585,121.085L301.565,120.556L302.545,120.439L303.525,119.712L304.505,122.4L305.485,120.574L306.465,121.635L307.445,119.055L308.425,121.195L309.405,121.169L310.385,123.784L311.365,119.184L312.345,121.394L313.325,121.125L314.305,121.97L315.285,119.65L316.265,122.44L317.245,112.036L318.225,121.906L319.205,117.409L320.185,117.789L321.165,119.536L322.145,120.113L323.125,117.882L324.105,127.078L325.085,117.192L326.065,118.982L327.045,118.167L328.025,117.203L329.005,121.164L329.983,120.406L330.962,114.945L331.943,119.224L332.923,119.916L333.902,117.861L334.883,115.932L335.863,111.744L336.842,117.076L337.823,118.081L338.803,116.329L339.783,114.86L340.763,115.663L341.743,116.032L342.723,119.442L343.703,116.067L344.683,114.203L345.663,114.714L346.643,111.6L347.623,109.89L348.603,109.022L349.583,105.679L350.563,110.448L351.543,107.693L352.523,103.54L353.503,108.319L354.483,105.459L355.462,103.029L356.443,108.967L357.423,109.473L358.402,107.818L359.383,113.245L360.363,110.377L361.342,112.492L362.323,114.968L363.303,116.67L364.283,119.45L365.263,116.609L366.243,115.401L367.223,118.42L368.203,153.813L369.183,118.927L370.16,129.414L371.14,123.37L372.12,126.15L373.1,119.159L374.08,113.74L375.06,77.837L376.04,111.854L377.02,100.884L378,107.938L378.98,107.532L379.96,108.058L380.94,114.517L381.92,118.734L382.9,130.574L383.88,120.777L384.86,116.118L385.84,123.207L386.82,128.955L387.8,110.418L388.78,116.035L389.76,107.047L390.74,126.784L391.72,123.231L392.7,121.347L393.68,122.166L394.66,128.095L395.64,138.441L396.62,178.881L397.6,112.835L398.58,132.196L399.56,126.358L400.54,121.82L401.52,121.136L402.5,107.284L403.48,103.928L404.46,93.087L405.44,102.641L406.42,97.635L407.4,108.629L408.38,111.287L409.36,102.787L410.337,63.048L411.318,136.722L412.298,119.104L413.277,131.317L414.258,123.51L415.238,131.746L416.217,137.15L417.198,144.818L418.178,140.549L419.158,136.154L420.138,154.068L421.118,137.997L422.098,138.303L423.078,140.287L424.058,140L425.038,134.658L426.018,137L426.998,115.7L427.978,135.432L428.958,132.92L429.938,130.856L430.918,131.864L431.897,134.597L432.878,127.644L433.858,127.202L434.837,135.079L435.818,135.157L436.798,137.046L437.777,134.977L438.758,132.59L439.738,131.698L440.717,140.223L441.698,128.782L442.678,131.2L443.658,129.213L444.638,132.979L445.618,129.327L446.598,130.549L447.578,135.967L448.558,133.732L449.538,131.05L450.515,134.495L451.495,129.83L452.475,127.282L453.455,124.867L454.435,119.989L455.415,118.777L456.395,120.05L457.375,119.266L458.355,121.472L459.335,124.275L460.315,123.218L461.295,122.644L462.275,127.029L463.255,124.479L464.235,125.629L465.215,126.401L466.195,123.91L467.175,125.722L468.155,120.717L469.135,122.365L470.115,125.333L471.095,123.766L472.075,122.268L473.055,124.715L474.035,122.511L475.015,120.648L475.995,122.11L476.975,121.308L477.955,122.319L478.935,122.939L479.915,119.732L480.895,123.036L481.875,122.522L482.855,120.744L483.835,113.592L484.815,118.292L485.795,116.297L486.775,119.196L487.755,117.653L488.735,115.479L489.715,119.496L490.693,126.151L491.673,118.509L492.652,123.842L493.633,120.278L494.613,124.521L495.592,119.356L496.573,121.688L497.553,119.623L498.533,120.343L499.513,116.634L500.493,121.351L501.473,117.335L502.453,123.366L503.433,115.736L504.413,120.574L505.393,124.167L506.373,122.819L507.353,125.738L508.333,124.096L509.313,122.226L510.293,127.802L511.272,126.642L512.253,124.43L513.232,127.144L514.212,122.887L515.193,124.565L516.173,130.33L517.153,125.076L518.133,124.516L519.112,124.89L520.092,123.597L521.073,123.765L522.053,123.098L523.033,120.593L524.013,125.753L524.992,125.439L525.973,125.359L526.953,125.792L527.933,125.818L528.913,124.373L529.893,126.693L530.87,124.225L531.85,125.11L532.83,125.117L533.81,124.071L534.79,123.348L535.77,123.73L536.75,124.391L537.73,123.944L538.71,124.139L539.69,124.952L540.67,126.152L541.65,125.681L542.63,122.564L543.61,122.953L544.59,123.504L545.57,123.65L546.55,122.302L547.53,124.252L548.51,124.164L549.49,124.146L550.47,129.262L551.45,121.635L552.43,124.077L553.41,124.745L554.39,124.677L555.37,122.083L556.35,122.162L557.33,115.384L558.31,125.383L559.29,119.896L560.27,123.222L561.25,120.682L562.23,122.415L563.21,121.347L564.19,123.24L565.17,122.47L566.15,123.974L567.13,122.964L568.11,123.155L569.09,121.855L570.07,122.627L571.048,121.312L572.028,121.249L573.008,121.733L573.988,120.634L574.968,120.731L575.948,121.89L576.928,121.579L577.908,121.701L578.888,120.457L579.867,120.846L580.848,120.897L581.828,119.412L582.808,122.388L583.788,121.816L584.768,125.531L585.747,118.554L586.728,115.318L587.708,119.072L588.688,116.058L589.668,120.097L590.648,120.524L591.628,111.069L592.608,114.821L593.588,119.304L594.568,116.838L595.548,115.214L596.528,120.065L597.508,120.351L598.488,112.805L599.468,113.743" style="fill:none;fill-rule:nonzero;stroke:rgb(221,68,17);stroke-width:1.5px;"/>
    <path d="M65.4,41.648L66.38,41.78L67.36,41.909L68.34,42.036L69.32,42.159L70.3,42.278L71.28,42.391L72.26,42.498L73.24,42.598L74.22,42.69L75.2,42.774L76.18,42.849L77.159,42.914L78.139,42.968L79.119,43.012L80.099,43.044L81.079,43.065L82.059,43.073L83.039,43.07L84.019,43.053L84.999,43.024L85.979,42.982L86.959,42.927L87.939,42.859L88.919,42.779L89.899,42.686L90.879,42.581L91.859,42.464L92.839,42.336L93.819,42.196L94.798,42.046L95.778,41.886L96.758,41.717L97.738,41.539L98.718,41.352L99.698,41.159L100.678,40.959L101.658,40.754L102.638,40.544L103.618,40.331L104.598,40.114L105.578,39.896L106.558,39.677L107.537,39.458L108.518,39.241L109.498,39.025L110.477,38.813L111.457,38.605L112.437,38.402L113.417,38.205L114.397,38.016L115.377,37.834L116.357,37.661L117.337,37.498L118.317,37.346L119.297,37.204L120.277,37.075L121.257,36.959L122.237,36.856L123.217,36.767L124.197,36.692L125.177,36.632L126.156,36.587L127.136,36.558L128.116,36.544L129.096,36.547L130.076,36.565L131.056,36.599L132.036,36.649L133.016,36.715L133.996,36.797L134.976,36.893L135.956,37.005L136.936,37.131L137.916,37.271L138.896,37.425L139.875,37.591L140.856,37.77L141.836,37.96L142.815,38.16L143.795,38.371L144.775,38.59L145.755,38.817L146.735,39.051L147.715,39.291L148.695,39.536L149.675,39.784L150.655,40.035L151.635,40.288L152.615,40.541L153.595,40.793L154.575,41.043L155.555,41.291L156.535,41.534L157.515,41.772L158.494,42.004L159.474,42.228L160.454,42.444L161.434,42.65L162.414,42.846L163.394,43.03L164.374,43.202L165.354,43.361L166.334,43.506L167.314,43.637L168.294,43.753L169.274,43.852L170.254,43.935L171.234,44.002L172.214,44.051L173.194,44.083L174.174,44.097L175.153,44.093L176.133,44.072L177.113,44.032L178.093,43.975L179.073,43.9L180.053,43.807L181.033,43.698L182.013,43.571L182.993,43.429L183.973,43.271L184.953,43.097L185.933,42.91L186.913,42.709L187.893,42.494L188.873,42.268L189.853,42.031L190.832,41.784L191.812,41.528L192.792,41.263L193.772,40.992L194.752,40.715L195.732,40.433L196.712,40.148L197.692,39.861L198.672,39.573L199.652,39.284L200.632,38.997L201.612,38.713L202.592,38.433L203.571,38.157L204.552,37.888L205.532,37.626L206.512,37.372L207.491,37.129L208.471,36.895L209.451,36.673L210.431,36.464L211.411,36.268L212.391,36.087L213.371,35.92L214.351,35.77L215.331,35.636L216.311,35.52L217.291,35.42L218.271,35.34L219.25,35.277L220.231,35.234L221.211,35.209L222.19,35.204L223.17,35.218L224.15,35.252L225.13,35.305L226.11,35.377L227.09,35.468L228.07,35.577L229.05,35.705L230.03,35.85L231.01,36.013L231.99,36.192L232.97,36.388L233.95,36.598L234.929,36.824L235.91,37.063L236.89,37.315L237.869,37.579L238.849,37.853L239.829,38.138L240.809,38.432L241.789,38.734L242.769,39.042L243.749,39.356L244.729,39.675L245.709,39.997L246.689,40.321L247.669,40.646L248.649,40.972L249.629,41.295L250.607,41.617L251.588,41.935L252.568,42.248L253.548,42.556L254.528,42.857L255.508,43.15L256.488,43.434L257.467,43.709L258.448,43.973L259.428,44.225L260.408,44.466L261.387,44.693L262.368,44.907L263.348,45.105L264.328,45.289L265.308,45.458L266.288,45.61L267.268,45.746L268.248,45.865L269.228,45.967L270.208,46.052L271.188,46.119L272.168,46.169L273.148,46.2L274.128,46.214L275.108,46.211L276.088,46.19L277.068,46.152L278.048,46.096L279.027,46.024L280.008,45.935L280.988,45.83L281.967,45.709L282.948,45.573L283.928,45.422L284.908,45.257L285.888,45.078L286.868,44.886L287.848,44.682L288.828,44.465L289.805,44.237L290.785,43.999L291.765,43.75L292.745,43.493L293.725,43.226L294.705,42.952L295.685,42.67L296.665,42.381L297.645,42.087L298.625,41.786L299.605,41.482L300.585,41.173L301.565,40.861L302.545,40.545L303.525,40.228L304.505,39.908L305.485,39.587L306.465,39.264L308.425,38.619L309.405,38.296L310.385,37.974L311.365,37.653L312.345,37.334L313.325,37.015L314.305,36.699L315.285,36.384L316.265,36.071L317.245,35.761L318.225,35.453L319.205,35.148L320.185,34.845L321.165,34.545L322.145,34.247L323.125,33.952L324.105,33.66L325.085,33.371L326.065,33.084L327.045,32.801L328.025,32.52L329.005,32.241L329.983,31.966L330.962,31.693L331.943,31.424L332.923,31.157L333.902,30.892L334.883,30.631L335.863,30.373L336.842,30.119L337.823,29.867L338.803,29.619L339.783,29.374L340.763,29.134L341.743,28.897L342.723,28.665L343.703,28.437L344.683,28.214L345.663,27.997L346.643,27.785L347.623,27.58L348.603,27.381L349.583,27.189L350.563,27.006L351.543,26.83L352.523,26.663L353.503,26.506L354.483,26.359L355.462,26.222L356.443,26.098L357.423,25.985L358.402,25.886L359.383,25.8L360.363,25.729L361.342,25.673L362.323,25.633L363.303,25.609L364.283,25.604L365.263,25.616L366.243,25.648L367.223,25.7L368.203,25.772L369.183,25.866L370.16,25.981L371.14,26.119L372.12,26.28L373.1,26.464L374.08,26.673L375.06,26.907L376.04,27.165L377.02,27.449L378,27.758L378.98,28.093L379.96,28.453L380.94,28.84L381.92,29.254L382.9,29.693L383.88,30.157L384.86,30.647L385.84,31.162L386.82,31.702L387.8,32.266L388.78,32.854L389.76,33.465L390.74,34.097L391.72,34.752L392.7,35.426L393.68,36.12L394.66,36.832L395.64,37.561L396.62,38.306L397.6,39.066L398.58,39.838L399.56,40.621L400.54,41.415L401.52,42.217L402.5,43.025L403.48,43.839L404.46,44.655L405.44,45.472L406.42,46.29L407.4,47.104L408.38,47.914L409.36,48.718L410.337,49.514L411.318,50.299L412.298,51.072L413.277,51.831L414.258,52.573L415.238,53.298L416.217,54.003L417.198,54.686L418.178,55.345L419.158,55.98L420.138,56.587L421.118,57.166L422.098,57.714L423.078,58.231L424.058,58.715L425.038,59.165L426.018,59.579L426.998,59.957L427.978,60.297L428.958,60.598L429.938,60.86L430.918,61.082L431.897,61.264L432.878,61.404L433.858,61.504L434.837,61.562L435.818,61.578L436.798,61.553L437.777,61.487L438.758,61.381L439.738,61.233L440.717,61.047L441.698,60.821L442.678,60.557L443.658,60.256L444.638,59.92L445.618,59.548L446.598,59.143L447.578,58.706L448.558,58.239L449.538,57.743L450.515,57.221L451.495,56.673L452.475,56.101L453.455,55.509L454.435,54.898L455.415,54.269L456.395,53.626L457.375,52.969L458.355,52.303L459.335,51.629L460.315,50.948L461.295,50.265L462.275,49.58L463.255,48.896L464.235,48.215L465.215,47.541L466.195,46.874L467.175,46.217L468.155,45.573L469.135,44.943L470.115,44.329L471.095,43.733L472.075,43.158L473.055,42.605L474.035,42.075L475.015,41.571L475.995,41.093L476.975,40.644L477.955,40.224L478.935,39.834L479.915,39.476L480.895,39.151L481.875,38.858L482.855,38.6L483.835,38.376L484.815,38.186L485.795,38.031L486.775,37.911L487.755,37.826L488.735,37.776L489.715,37.76L490.693,37.778L491.673,37.829L492.652,37.912L493.633,38.027L494.613,38.173L495.592,38.348L496.573,38.552L497.553,38.783L498.533,39.039L499.513,39.319L500.493,39.622L501.473,39.946L502.453,40.288L503.433,40.648L504.413,41.024L505.393,41.412L506.373,41.813L507.353,42.222L508.333,42.639L509.313,43.062L510.293,43.487L511.272,43.914L512.253,44.341L513.232,44.765L514.212,45.184L515.193,45.596L516.173,45.999L517.153,46.392L518.133,46.773L519.112,47.14L520.092,47.491L521.073,47.825L522.053,48.141L523.033,48.436L524.013,48.709L524.992,48.961L525.973,49.188L526.953,49.391L527.933,49.568L528.913,49.719L529.893,49.844L530.87,49.94L531.85,50.01L532.83,50.051L533.81,50.064L534.79,50.05L535.77,50.007L536.75,49.937L537.73,49.839L538.71,49.715L539.69,49.565L540.67,49.39L541.65,49.19L542.63,48.967L543.61,48.721L544.59,48.454L545.57,48.167L546.55,47.861L547.53,47.539L548.51,47.2L549.49,46.847L550.47,46.482L551.45,46.106L552.43,45.721L553.41,45.328L554.39,44.929L555.37,44.526L556.35,44.122L557.33,43.716L558.31,43.313L559.29,42.912L560.27,42.516L561.25,42.127L562.23,41.746L563.21,41.375L564.19,41.015L565.17,40.668L566.15,40.336L567.13,40.019L568.11,39.719L569.09,39.437L570.07,39.175L571.048,38.933L572.028,38.712L573.008,38.513L573.988,38.336L574.968,38.183L575.948,38.053L576.928,37.947L577.908,37.865L578.888,37.808L579.867,37.775L580.848,37.766L581.828,37.781L582.808,37.82L583.788,37.881L584.768,37.965L585.747,38.071L586.728,38.198L587.708,38.344L588.688,38.511L589.668,38.694L590.648,38.895L591.628,39.111L592.608,39.341L593.588,39.585L594.568,39.839L595.548,40.103L596.528,40.376L597.508,40.655L598.488,40.939L599.468,41.227" style="fill:none;fill-rule:nonzero;stroke:rgb(0,128,0);stroke-width:1.5px;"/>
    <g transform="matrix(1,0,0,1,45.8013,344.493)">
        <text x="0px" y="0px" style="font-family:'ArialMT', 'Arial', sans-serif;font-size:14.75px;">time derivative of raw data</text>
    </g>
    <g transform="matrix(1,0,0,1,45.8013,106.945)">
        <text x="0px" y="0px" style="font-family:'ArialMT', 'Arial', sans-serif;font-size:14.75px;">time derivative of averaged data (2x)</text>
    </g>
    <g transform="matrix(1,0,0,1,45.8013,26.8727)">
        <text x="0px" y="0px" style="font-family:'ArialMT', 'Arial', sans-serif;font-size:14.75px;">time derivative of FFT<tspan x="142.35px 146.448px " y="0px 0px "> r</tspan>econstructed data (4x)</text>
    </g>
</svg>
